<svg width="16" height="16" viewBox="0 0 16 16" fill="none" xmlns="http://www.w3.org/2000/svg">
<path d="M10 0.833984H3.33333C2.32081 0.833984 1.5 1.6548 1.5 2.66732V10.6673C1.5 11.6798 2.32081 12.5007 3.33333 12.5007H10C11.0125 12.5007 11.8333 11.6798 11.8333 10.6673V2.66732C11.8333 1.6548 11.0125 0.833984 10 0.833984Z" fill="#C7C7C7"/>
<path d="M12.6665 15.1667H5.99984C5.51372 15.1663 5.0476 14.973 4.70386 14.6293C4.36012 14.2856 4.16686 13.8195 4.1665 13.3333V5.33333C4.16686 4.84721 4.36012 4.3811 4.70386 4.03736C5.0476 3.69362 5.51372 3.50035 5.99984 3.5H12.6665C13.1526 3.50035 13.6187 3.69362 13.9625 4.03736C14.3062 4.3811 14.4995 4.84721 14.4998 5.33333V13.3333C14.4995 13.8195 14.3062 14.2856 13.9625 14.6293C13.6187 14.973 13.1526 15.1663 12.6665 15.1667ZM5.99984 4.5C5.77893 4.50035 5.56718 4.58826 5.41097 4.74447C5.25477 4.90067 5.16686 5.11243 5.1665 5.33333V13.3333C5.16686 13.5542 5.25477 13.766 5.41097 13.9222C5.56718 14.0784 5.77893 14.1663 5.99984 14.1667H12.6665C12.8874 14.1663 13.0992 14.0784 13.2554 13.9222C13.4116 13.766 13.4995 13.5542 13.4998 13.3333V5.33333C13.4995 5.11243 13.4116 4.90067 13.2554 4.74447C13.0992 4.58826 12.8874 4.50035 12.6665 4.5H5.99984Z" fill="#C7C7C7"/>
</svg>
