<svg width="24" height="24" viewBox="0 0 24 24" fill="none" xmlns="http://www.w3.org/2000/svg">
<g clip-path="url(#clip0_34406_61646)">
<path d="M12 2C10.0222 2 8.08879 2.58649 6.4443 3.68531C4.79981 4.78412 3.51809 6.34591 2.76121 8.17317C2.00433 10.0004 1.8063 12.0111 2.19215 13.9509C2.578 15.8907 3.53041 17.6725 4.92894 19.0711C6.32746 20.4696 8.10929 21.422 10.0491 21.8079C11.9889 22.1937 13.9996 21.9957 15.8268 21.2388C17.6541 20.4819 19.2159 19.2002 20.3147 17.5557C21.4135 15.9112 22 13.9778 22 12C22.0012 10.6865 21.7433 9.38556 21.2412 8.17177C20.7391 6.95798 20.0025 5.85512 19.0737 4.9263C18.1449 3.99747 17.042 3.26093 15.8282 2.7588C14.6144 2.25667 13.3136 1.99882 12 2ZM17 15.59L15.59 17L12 13.41L8.41 17L7 15.59L10.59 12L7 8.41L8.41 7L12 10.59L15.59 7L17 8.41L13.41 12L17 15.59Z" fill="#FF5148"/>
</g>
<defs>
<clipPath id="clip0_34406_61646">
<rect width="24" height="24" fill="white"/>
</clipPath>
</defs>
</svg>
