<svg width="16" height="16" viewBox="0 0 16 16" fill="none" xmlns="http://www.w3.org/2000/svg">
<path d="M6.61328 3.01011V5.77331C6.61328 6.54032 7.23507 7.16211 8.00208 7.16211C8.76909 7.16211 9.39088 6.54032 9.39088 5.77331V3.01011C9.39088 2.2431 8.76909 1.62131 8.00208 1.62131C7.23507 1.62131 6.61328 2.2431 6.61328 3.01011Z" fill="#3A1593"/>
<path d="M5.45886 5.95591H10.5437C10.6464 5.96004 10.7465 5.99006 10.8345 6.04319C10.9226 6.09632 10.9958 6.17083 11.0473 6.25982C11.0989 6.3488 11.1271 6.44936 11.1294 6.55217C11.1317 6.65498 11.108 6.75671 11.0605 6.84791L8.51726 11.2519C8.46542 11.3427 8.3905 11.4182 8.30009 11.4706C8.20968 11.5231 8.107 11.5508 8.00246 11.5508C7.89792 11.5508 7.79523 11.5231 7.70482 11.4706C7.61441 11.4182 7.53949 11.3427 7.48766 11.2519L4.94206 6.84871C4.89457 6.75745 4.87089 6.65569 4.8732 6.55285C4.87551 6.45001 4.90374 6.34941 4.95528 6.26038C5.00681 6.17136 5.07998 6.09677 5.16801 6.04355C5.25604 5.99033 5.35608 5.96018 5.45886 5.95591Z" fill="#3A1593"/>
<path d="M13.5992 11.9746H2.39922C1.73648 11.9746 1.19922 12.5119 1.19922 13.1746C1.19922 13.8374 1.73648 14.3746 2.39922 14.3746H13.5992C14.262 14.3746 14.7992 13.8374 14.7992 13.1746C14.7992 12.5119 14.262 11.9746 13.5992 11.9746Z" fill="#3A1593"/>
</svg>
