<svg width="16" height="16" viewBox="0 0 16 16" fill="none" xmlns="http://www.w3.org/2000/svg">
<path d="M8 12.5C10.4853 12.5 12.5 10.4853 12.5 8C12.5 5.51472 10.4853 3.5 8 3.5C5.51472 3.5 3.5 5.51472 3.5 8C3.5 10.4853 5.51472 12.5 8 12.5Z" fill="#3A1593"/>
<path d="M8 1C6.56971 1.00142 5.17402 1.44 4 2.25696V2C4 1.86739 3.94732 1.74021 3.85355 1.64645C3.75979 1.55268 3.63261 1.5 3.5 1.5C3.36739 1.5 3.24021 1.55268 3.14645 1.64645C3.05268 1.74021 3 1.86739 3 2V3.5C2.99996 3.56567 3.01287 3.63071 3.03798 3.69139C3.0631 3.75207 3.09993 3.8072 3.14636 3.85364C3.1928 3.90007 3.24793 3.9369 3.30861 3.96202C3.36929 3.98713 3.43433 4.00004 3.5 4H5C5.13261 4 5.25979 3.94732 5.35355 3.85355C5.44732 3.75979 5.5 3.63261 5.5 3.5C5.5 3.36739 5.44732 3.24021 5.35355 3.14645C5.25979 3.05268 5.13261 3 5 3H4.68963C5.80398 2.26322 7.13241 1.91959 8.46424 2.0236C9.79607 2.12761 11.0551 2.6733 12.0415 3.57414C13.028 4.47498 13.6854 5.67938 13.9096 6.99632C14.1337 8.31327 13.9118 9.66736 13.2789 10.8438C12.6461 12.0203 11.6385 12.9518 10.4161 13.4906C9.19371 14.0294 7.8264 14.1446 6.53105 13.818C5.23571 13.4914 4.08649 12.7417 3.26566 11.6877C2.44483 10.6337 1.9994 9.33589 2 8C2 7.86739 1.94732 7.74021 1.85355 7.64645C1.75979 7.55268 1.63261 7.5 1.5 7.5C1.36739 7.5 1.24021 7.55268 1.14645 7.64645C1.05268 7.74021 1 7.86739 1 8C1 9.38447 1.41054 10.7378 2.17971 11.889C2.94888 13.0401 4.04213 13.9373 5.32122 14.4672C6.6003 14.997 8.00776 15.1356 9.36563 14.8655C10.7235 14.5954 11.9708 13.9287 12.9497 12.9497C13.9287 11.9708 14.5954 10.7235 14.8655 9.36563C15.1356 8.00776 14.997 6.6003 14.4672 5.32122C13.9373 4.04213 13.0401 2.94888 11.889 2.17971C10.7378 1.41054 9.38447 1 8 1Z" fill="#3A1593"/>
<path d="M9.77734 8.584L8.5 7.73242V5.5C8.5 5.36739 8.44732 5.24021 8.35355 5.14645C8.25979 5.05268 8.13261 5 8 5C7.86739 5 7.74021 5.05268 7.64645 5.14645C7.55268 5.24021 7.5 5.36739 7.5 5.5V8C7.50002 8.08231 7.52035 8.16334 7.55919 8.23591C7.59803 8.30847 7.65418 8.37033 7.72265 8.416L9.22266 9.416C9.333 9.48802 9.4673 9.51357 9.59638 9.48711C9.72546 9.46064 9.83887 9.38429 9.91196 9.27465C9.98506 9.16502 10.0119 9.03097 9.98671 8.90164C9.9615 8.77231 9.88626 8.65816 9.77734 8.584Z" fill="#FFCE1A"/>
</svg>
