<svg width="12" height="12" viewBox="0 0 12 12" fill="none" xmlns="http://www.w3.org/2000/svg">
<g clip-path="url(#clip0_34406_59052)">
<path d="M6 10.5C8.48528 10.5 10.5 8.48528 10.5 6C10.5 3.51472 8.48528 1.5 6 1.5C3.51472 1.5 1.5 3.51472 1.5 6C1.5 8.48528 3.51472 10.5 6 10.5Z" fill="#F4F6FF"/>
<path d="M6.75 3.375C6.75 2.96079 6.41421 2.625 6 2.625C5.58579 2.625 5.25 2.96079 5.25 3.375C5.25 3.78921 5.58579 4.125 6 4.125C6.41421 4.125 6.75 3.78921 6.75 3.375Z" fill="#FF5148"/>
<path d="M6.75 5.625C6.75 5.21079 6.41421 4.875 6 4.875C5.58579 4.875 5.25 5.21079 5.25 5.625V8.625C5.25 9.03921 5.58579 9.375 6 9.375C6.41421 9.375 6.75 9.03921 6.75 8.625V5.625Z" fill="#3A1593"/>
</g>
<defs>
<clipPath id="clip0_34406_59052">
<rect width="12" height="12" fill="white"/>
</clipPath>
</defs>
</svg>
