<svg width="24" height="24" viewBox="0 0 24 24" fill="none" xmlns="http://www.w3.org/2000/svg">
<g clip-path="url(#clip0_35454_68599)">
<g opacity="0.996">
<path d="M9.51892 20.0607C9.63798 20.1822 9.77996 20.2789 9.93661 20.3452C10.0933 20.4114 10.2615 20.446 10.4316 20.4469C10.6017 20.4477 10.7703 20.4149 10.9276 20.3502C11.0849 20.2855 11.2279 20.1902 11.3482 20.0699C11.4684 19.9497 11.5637 19.8067 11.6284 19.6494C11.6931 19.4921 11.726 19.3235 11.7251 19.1534C11.7242 18.9833 11.6897 18.815 11.6234 18.6584C11.5571 18.5017 11.4604 18.3598 11.3389 18.2407L6.39392 13.2957H20.7129C21.0543 13.2957 21.3816 13.1601 21.623 12.9187C21.8643 12.6774 21.9999 12.35 21.9999 12.0087C21.9999 11.6674 21.8643 11.34 21.623 11.0987C21.3816 10.8573 21.0543 10.7217 20.7129 10.7217H6.39293L11.3389 5.7757C11.5763 5.53353 11.7084 5.20747 11.7067 4.86839C11.705 4.52932 11.5696 4.20461 11.3298 3.96484C11.09 3.72508 10.7653 3.58962 10.4262 3.58791C10.0872 3.58619 9.7611 3.71837 9.51892 3.9557L2.37593 11.0977C2.1346 11.3391 1.99902 11.6664 1.99902 12.0077C1.99902 12.349 2.1346 12.6763 2.37593 12.9177L9.51892 20.0607Z" fill="#3A1593"/>
</g>
</g>
<defs>
<clipPath id="clip0_35454_68599">
<rect width="24" height="24" fill="white"/>
</clipPath>
</defs>
</svg>
