<svg width="20" height="20" viewBox="0 0 20 20" fill="none" xmlns="http://www.w3.org/2000/svg">
<path d="M16.4079 10.3368C16.4079 9.94694 16.0918 9.63086 15.7019 9.63086C15.312 9.63086 14.996 9.94694 14.996 10.3368C14.9956 13.096 12.7585 15.3324 9.99933 15.3319C7.24078 15.3315 5.00463 13.0954 5.00422 10.3368C5.00422 9.94694 4.68814 9.63086 4.29825 9.63086C3.90836 9.63086 3.59229 9.94694 3.59229 10.3368C3.59601 13.6009 6.05025 16.3418 9.29415 16.7046V18.5872H6.7268C6.33691 18.5872 6.02083 18.9033 6.02083 19.2932C6.02083 19.683 6.33691 19.9991 6.7268 19.9991H13.2734C13.6633 19.9991 13.9794 19.683 13.9794 19.2932C13.9794 18.9033 13.6633 18.5872 13.2734 18.5872H10.7061V16.7046C13.9499 16.3418 16.4042 13.6009 16.4079 10.3368Z" fill="#DAD6D6"/>
<path d="M9.99994 0C7.82565 0 6.06299 1.76261 6.06299 3.93695V10.3118C6.06556 12.4851 7.82671 14.2462 9.99994 14.2488C12.1732 14.2462 13.9343 12.4851 13.9369 10.3118V3.93695C13.9369 1.76261 12.1743 0 9.99994 0Z" fill="#DAD6D6"/>
</svg>
