<svg width="16" height="16" viewBox="0 0 16 16" fill="none" xmlns="http://www.w3.org/2000/svg">
<circle cx="8.00005" cy="7.99957" r="6.22222" fill="#3A1593"/>
<g clip-path="url(#clip0_34406_60328)">
<path d="M7.3332 11.333V8.6666H4.6664C4.48966 8.6666 4.32016 8.59639 4.19518 8.47142C4.07021 8.34644 4 8.17694 4 8.0002C4 7.82346 4.07021 7.65396 4.19518 7.52898C4.32016 7.40401 4.48966 7.3338 4.6664 7.3338H7.3332V4.667C7.3332 4.57941 7.35045 4.49267 7.38397 4.41175C7.41749 4.33083 7.46662 4.2573 7.52856 4.19536C7.5905 4.13342 7.66403 4.08429 7.74495 4.05077C7.82587 4.01725 7.91261 4 8.0002 4C8.08779 4 8.17453 4.01725 8.25545 4.05077C8.33637 4.08429 8.4099 4.13342 8.47184 4.19536C8.53378 4.2573 8.58291 4.33083 8.61643 4.41175C8.64995 4.49267 8.6672 4.57941 8.6672 4.667V7.3334H11.334C11.5107 7.3334 11.6802 7.40361 11.8052 7.52858C11.9302 7.65356 12.0004 7.82306 12.0004 7.9998C12.0004 8.17654 11.9302 8.34604 11.8052 8.47102C11.6802 8.59599 11.5107 8.6662 11.334 8.6662H8.6672V11.3326C8.6672 11.4202 8.64995 11.5069 8.61643 11.5878C8.58291 11.6688 8.53378 11.7423 8.47184 11.8042C8.4099 11.8662 8.33637 11.9153 8.25545 11.9488C8.17453 11.9823 8.08779 11.9996 8.0002 11.9996C7.91261 11.9996 7.82587 11.9823 7.74495 11.9488C7.66403 11.9153 7.5905 11.8662 7.52856 11.8042C7.46662 11.7423 7.41749 11.6688 7.38397 11.5878C7.35045 11.5069 7.3332 11.4202 7.3332 11.3326V11.333Z" fill="white"/>
</g>
<defs>
<clipPath id="clip0_34406_60328">
<rect width="8" height="8" fill="white" transform="translate(4 4)"/>
</clipPath>
</defs>
</svg>
