<svg width="20" height="20" viewBox="0 0 20 20" fill="none" xmlns="http://www.w3.org/2000/svg">
<g clip-path="url(#clip0_40779_57635)">
<path d="M18 10C18 5.58172 14.4183 2 10 2C5.58172 2 2 5.58172 2 10C2 14.4183 5.58172 18 10 18C14.4183 18 18 14.4183 18 10Z" fill="#3A1593"/>
<path d="M17 10C17 6.13401 13.866 3 10 3C6.13401 3 3 6.13401 3 10C3 13.866 6.13401 17 10 17C13.866 17 17 13.866 17 10Z" stroke="#3A1593" stroke-width="2"/>
<path d="M8.0744 13.3901H7.98627C7.85707 13.3761 7.73233 13.3358 7.61932 13.2717C7.50632 13.2075 7.40746 13.1208 7.32929 13.017L5.55438 10.5761C5.45914 10.483 5.38528 10.3703 5.33783 10.2459C5.29038 10.1215 5.27039 9.98815 5.27948 9.85528C5.28857 9.72242 5.32637 9.5932 5.39032 9.47638C5.45427 9.35956 5.54305 9.25802 5.65009 9.17877C5.75712 9.09952 5.88004 9.04435 6.01044 9.01727C6.14083 8.99019 6.27548 8.99183 6.40521 9.02191C6.53495 9.05199 6.65673 9.10989 6.7619 9.19159C6.86708 9.27329 6.9531 9.37679 7.01434 9.49505L8.17645 11.0881L12.7934 6.76312C12.8804 6.67426 12.9844 6.60388 13.0993 6.55633C13.2142 6.50879 13.3377 6.48497 13.4621 6.48639C13.5865 6.48781 13.7091 6.51448 13.8229 6.56464C13.9367 6.61479 14.0393 6.68743 14.1242 6.77826C14.2092 6.86909 14.2749 6.97618 14.3173 7.09308C14.3598 7.20997 14.3779 7.33426 14.371 7.45843C14.3641 7.5826 14.3322 7.70413 14.277 7.81561C14.2219 7.92709 14.145 8.02625 14.0505 8.10712L8.67328 13.1411C8.51119 13.2951 8.29796 13.3838 8.0744 13.3901Z" fill="white"/>
</g>
<defs>
<clipPath id="clip0_40779_57635">
<rect width="20" height="20" fill="white"/>
</clipPath>
</defs>
</svg>
