<svg width="20" height="20" viewBox="0 0 20 20" fill="none" xmlns="http://www.w3.org/2000/svg">
<path d="M10.0005 18.958C7.98047 18.958 6.52047 18.958 5.34547 18.8005C4.02297 18.623 3.13047 18.238 2.44547 17.5555C1.76297 16.873 1.37797 15.978 1.20047 14.6555C1.04297 13.4805 1.04297 12.0205 1.04297 10.0005C1.04297 7.98047 1.04297 6.52047 1.20047 5.34547C1.37797 4.02297 1.76297 3.13047 2.44547 2.44547C3.12797 1.76047 4.02297 1.37797 5.34547 1.20047C6.52047 1.04297 7.98047 1.04297 10.0005 1.04297C10.3455 1.04297 10.6255 1.32297 10.6255 1.66797C10.6255 2.01297 10.3455 2.29297 10.0005 2.29297C6.25047 2.29297 4.36797 2.29297 3.33047 3.33047C2.29297 4.36797 2.29297 6.25047 2.29297 10.0005C2.29297 13.7505 2.29297 15.633 3.33047 16.6705C4.36797 17.708 6.25047 17.708 10.0005 17.708C13.7505 17.708 15.633 17.708 16.6705 16.6705C17.708 15.633 17.708 13.7505 17.708 10.0005C17.708 9.65547 17.988 9.37547 18.333 9.37547C18.678 9.37547 18.958 9.65547 18.958 10.0005C18.958 12.0205 18.958 13.4805 18.8005 14.6555C18.623 15.978 18.238 16.8705 17.5555 17.5555C16.873 18.238 15.978 18.623 14.6555 18.8005C13.4805 18.958 12.0205 18.958 10.0005 18.958Z" fill="#DAD6D6"/>
<path d="M17.5007 16.0438C17.3507 16.0438 17.2032 15.9913 17.0832 15.8838L17.5007 16.8683C16.7357 16.1758 17.2325 16.485 16.5 17C15.5875 17.6425 14.2875 18.79 13.5 18H8.5C4 18 3.22823 16.4208 2.71823 16.8683L2.08073 10.8913C1.82073 11.1188 1.42573 11.0913 1.19823 10.8313C0.970728 10.5713 0.998228 10.1763 1.25823 9.94882L2.71823 8.67132C3.72073 7.79382 5.24573 7.84382 6.18823 8.78632L9.76323 12.3613C10.1232 12.7213 10.6832 12.7688 11.0982 12.4763C11.7207 12.0388 12.4532 11.7888 13.1582 11.7738C13.9457 11.7588 14.6657 12.0213 15.2357 12.5363L17.9207 14.9538C18.1782 15.1838 18.1982 15.5788 17.9682 15.8363C17.8407 15.9738 17.6707 16.0438 17.5007 16.0438Z" fill="#DAD6D6"/>
<path d="M14.1682 1.04297C14.0082 1.04297 13.8482 1.10297 13.7257 1.22547L11.2257 3.72547C10.9807 3.97047 10.9807 4.36547 11.2257 4.61047C11.4707 4.85547 11.8657 4.85547 12.1107 4.61047L13.5432 3.17797V9.16797C13.5432 9.51297 13.8232 9.79297 14.1682 9.79297C14.5132 9.79297 14.7932 9.51297 14.7932 9.16797V3.17797L16.2257 4.61047C16.4707 4.85547 16.8657 4.85547 17.1107 4.61047C17.3557 4.36547 17.3557 3.97047 17.1107 3.72547L14.6107 1.22547C14.4882 1.10547 14.3282 1.04297 14.1682 1.04297Z" fill="#DAD6D6"/>
</svg>
